<svg width="527" height="527" viewBox="0 0 527 527" fill="none" xmlns="http://www.w3.org/2000/svg">
<path d="M141.169 167.565L139.895 382.892L357.588 383.756L299.764 479.841L41.2627 480.706L43.8104 229.848L141.169 167.565Z" fill="url(#paint0_linear_98_307)"/>
<path d="M255.088 308.188C288.329 308.188 315.277 281.24 315.277 247.998C315.277 214.756 288.329 187.808 255.088 187.808C221.846 187.808 194.898 214.756 194.898 247.998C194.898 281.24 221.846 308.188 255.088 308.188Z" fill="url(#paint1_linear_98_307)"/>
<path d="M43.9024 82.8972C26.5689 100.231 11.9196 119.293 0 139.493L66.0584 205.551C75.4758 183.805 89.0333 163.514 106.776 145.771C182.434 70.1131 305.543 70.1131 381.246 145.771C456.904 221.429 456.904 344.538 381.246 420.195C363.503 437.938 343.167 451.496 321.466 460.913L387.524 526.972C407.724 515.052 426.786 500.448 444.12 483.069C554.627 372.562 554.627 193.404 444.12 82.8972C333.613 -27.6096 154.409 -27.6551 43.9024 82.8972Z" fill="url(#paint2_linear_98_307)"/>
<path d="M289.346 141.678C280.292 138.675 271.148 136.901 262.003 136.264L250.539 170.749C259.729 170.248 269.146 171.431 278.427 174.479C317.916 187.582 339.344 230.392 326.242 269.882C313.14 309.371 270.329 330.799 230.839 317.697C221.604 314.603 213.324 309.917 206.272 304.003L194.808 338.488C202.451 343.447 210.867 347.496 219.921 350.499C277.608 369.652 339.89 338.443 359.044 280.801C378.197 223.159 346.988 160.831 289.346 141.678Z" fill="url(#paint3_linear_98_307)"/>
<defs>
<linearGradient id="paint0_linear_98_307" x1="199.425" y1="167.565" x2="199.039" y2="557.312" gradientUnits="userSpaceOnUse">
<stop stop-color="#ffffff"/>
<stop offset="1" stop-color="#0040B0"/>
</linearGradient>
<linearGradient id="paint1_linear_98_307" x1="255.088" y1="187.808" x2="280.361" y2="417.415" gradientUnits="userSpaceOnUse">
<stop stop-color="#0189BB"/>
<stop offset="1" stop-color="#003E55"/>
</linearGradient>
<linearGradient id="paint2_linear_98_307" x1="263.5" y1="7.2652e-06" x2="507.267" y2="697.207" gradientUnits="userSpaceOnUse">
<stop stop-color="#0189BB"/>
<stop offset="1" stop-color="#00435B"/>
</linearGradient>
<linearGradient id="paint3_linear_98_307" x1="251.927" y1="136.484" x2="342.348" y2="415.139" gradientUnits="userSpaceOnUse">
<stop stop-color="#ffffff"/>
<stop offset="1" stop-color="#0040B0"/>
</linearGradient>
</defs>
</svg>
