<svg width="1808" height="418" viewBox="0 0 1808 418" fill="none" xmlns="http://www.w3.org/2000/svg">
<path d="M72.5976 164.172L71.9425 274.906L183.893 275.35L154.156 324.763L21.2197 325.207L22.5299 196.201L72.5976 164.172Z" fill="url(#paint0_linear_98_305)"/>
<path d="M131.181 236.488C148.276 236.488 162.134 222.63 162.134 205.535C162.134 188.44 148.276 174.582 131.181 174.582C114.086 174.582 100.228 188.44 100.228 205.535C100.228 222.63 114.086 236.488 131.181 236.488Z" fill="url(#paint1_linear_98_305)"/>
<path d="M22.5772 120.631C13.6633 129.545 6.12978 139.348 0 149.735L33.9711 183.707C38.8141 172.523 45.7862 162.089 54.9107 152.964C93.8184 114.056 157.128 114.056 196.059 152.964C234.967 191.872 234.967 255.182 196.059 294.089C186.935 303.214 176.477 310.186 165.317 315.029L199.288 349C209.676 342.87 219.479 335.36 228.393 326.423C285.222 269.594 285.222 177.46 228.393 120.631C171.564 63.8015 79.4064 63.7781 22.5772 120.631Z" fill="url(#paint2_linear_98_305)"/>
<path d="M148.799 150.859C144.143 149.315 139.44 148.402 134.738 148.075L128.842 165.809C133.568 165.552 138.411 166.16 143.184 167.727C163.491 174.466 174.511 196.481 167.773 216.789C161.035 237.097 139.019 248.116 118.711 241.378C113.962 239.787 109.704 237.378 106.077 234.336L100.182 252.07C104.112 254.621 108.44 256.703 113.096 258.247C142.763 268.097 174.792 252.047 184.642 222.404C194.491 192.761 178.442 160.709 148.799 150.859Z" fill="url(#paint3_linear_98_305)"/>
<path d="M318.583 303L356.283 75.9111H509.302L502.649 115.496H397.642L388.772 169.607H485.906L479.253 209.193H382.119L373.248 263.415H478.698L472.045 303H318.583ZM552.689 305.772C539.679 305.772 528.48 302.446 519.092 295.793C509.778 289.066 503.125 279.197 499.133 266.187C495.215 253.103 494.845 237.061 498.024 218.063C501.277 198.548 507.116 182.322 515.543 169.386C523.971 156.375 533.95 146.655 545.482 140.223C557.014 133.718 569.026 130.466 581.519 130.466C590.981 130.466 598.632 132.092 604.472 135.345C610.386 138.523 614.932 142.515 618.11 147.32C621.289 152.051 623.507 156.708 624.763 161.291H626.205L640.509 75.9111H687.634L649.934 303H603.363L607.909 275.723H605.913C602.956 280.454 599.039 285.148 594.16 289.805C589.355 294.388 583.515 298.195 576.64 301.226C569.839 304.257 561.856 305.772 552.689 305.772ZM573.535 268.183C581.075 268.183 587.876 266.113 593.938 261.973C600 257.76 605.1 251.883 609.24 244.343C613.379 236.803 616.262 227.969 617.889 217.842C619.589 207.714 619.626 198.918 618 191.451C616.373 183.985 613.195 178.219 608.464 174.154C603.807 170.088 597.634 168.055 589.946 168.055C582.184 168.055 575.31 170.162 569.322 174.375C563.408 178.589 558.492 184.429 554.574 191.895C550.73 199.361 547.995 208.01 546.369 217.842C544.743 227.747 544.632 236.507 546.036 244.121C547.441 251.661 550.435 257.575 555.018 261.862C559.601 266.076 565.774 268.183 573.535 268.183ZM791.231 230.482L807.531 132.683H854.767L826.381 303H781.03L786.131 272.064H784.357C779.108 282.043 771.457 290.064 761.404 296.125C751.35 302.187 739.929 305.218 727.141 305.218C715.757 305.218 706.147 302.63 698.311 297.456C690.549 292.281 685.042 284.926 681.79 275.39C678.537 265.854 677.983 254.433 680.126 241.127L698.311 132.683H745.547L728.915 232.7C727.363 242.753 728.767 250.7 733.129 256.54C737.49 262.38 744.143 265.3 753.088 265.3C758.78 265.3 764.287 264.006 769.609 261.419C775.005 258.758 779.663 254.84 783.58 249.665C787.498 244.491 790.049 238.096 791.231 230.482Z" fill="white"/>
<path d="M900.892 202.031C904.576 199.268 908.106 198.04 911.483 198.347C915.014 198.654 917.547 199.805 919.082 201.801C920.77 203.643 921 205.869 919.772 208.478C918.698 211.088 915.474 213.314 910.102 215.156C908.106 216.23 906.034 217.688 903.885 219.53C901.736 221.219 900.278 223.445 899.51 226.208C898.743 229.431 900.124 231.964 903.655 233.806C907.339 235.648 912.097 236.799 917.93 237.26C924.07 237.874 930.594 237.72 937.502 236.799C944.563 235.878 950.703 234.19 955.922 231.734C958.378 230.659 960.143 230.276 961.218 230.583C962.446 230.89 963.137 231.58 963.29 232.655C963.444 233.576 963.137 234.65 962.369 235.878C961.755 236.953 960.834 237.72 959.606 238.181C952.238 241.711 944.409 244.321 936.12 246.009C927.831 247.544 919.849 247.621 912.174 246.24C904.806 244.858 899.357 242.095 895.826 237.951C892.296 233.806 891.144 229.201 892.372 224.135C889.763 227.052 886.463 230.89 882.471 235.648C878.48 240.253 874.259 245.319 869.808 250.845C865.51 256.371 861.058 262.05 856.453 267.883C852.001 273.563 847.857 278.936 844.019 284.001C840.182 289.067 836.881 293.518 834.118 297.356C831.355 301.193 829.513 303.956 828.592 305.645C826.904 307.794 825.139 309.559 823.297 310.941C821.608 312.322 819.766 313.013 817.771 313.013C815.161 313.013 813.089 312.245 811.554 310.71C810.019 309.329 808.791 307.564 807.87 305.415C806.795 303.266 806.028 300.963 805.567 298.507C805.107 296.051 804.8 293.748 804.646 291.599C803.879 285.613 803.725 279.166 804.186 272.258C804.646 265.351 805.644 258.597 807.179 251.996C808.56 245.242 810.479 238.948 812.935 233.115C815.238 227.129 818.078 222.217 821.455 218.379C823.911 215.616 826.52 213.851 829.283 213.083C832.046 212.162 834.502 212.009 836.651 212.623C838.8 213.237 840.412 214.542 841.487 216.537C842.561 218.379 842.715 220.528 841.947 222.984C840.566 227.589 838.57 233.039 835.96 239.332C833.351 245.472 830.741 251.919 828.132 258.673C825.676 265.274 823.45 271.798 821.455 278.245C819.613 284.692 818.538 290.525 818.231 295.744C818.231 296.051 818.231 296.588 818.231 297.356C818.231 297.97 818.308 298.507 818.461 298.968C818.615 299.428 818.845 299.735 819.152 299.889C819.613 299.889 820.227 299.428 820.994 298.507C821.455 297.893 823.22 295.514 826.29 291.369C829.36 287.071 833.197 281.852 837.802 275.712C842.561 269.418 847.857 262.588 853.69 255.22C859.523 247.698 865.279 240.483 870.959 233.576C876.792 226.515 882.318 220.221 887.537 214.695C892.756 209.016 897.208 204.794 900.892 202.031ZM952.736 220.682C955.499 218.072 958.262 216.384 961.025 215.616C963.788 214.695 966.168 214.542 968.163 215.156C970.312 215.77 971.847 216.998 972.768 218.84C973.843 220.682 973.996 222.831 973.229 225.287C970.619 233.115 969.007 239.869 968.393 245.549C967.779 251.229 967.933 255.987 968.854 259.825C969.775 263.509 971.387 266.425 973.689 268.574C975.992 270.723 978.755 272.182 981.978 272.949C987.504 274.177 994.028 273.717 1001.55 271.568C1009.22 269.265 1016.9 265.965 1024.58 261.667C1032.4 257.369 1039.77 252.533 1046.68 247.161C1053.59 241.788 1059.11 236.646 1063.26 231.734C1064.79 229.585 1066.48 228.203 1068.32 227.589C1070.17 226.975 1071.62 226.975 1072.7 227.589C1073.93 228.203 1074.46 229.431 1074.31 231.273C1074.16 232.962 1072.93 235.034 1070.63 237.49C1065.56 243.477 1059.42 249.387 1052.21 255.22C1045.14 261.053 1037.47 266.118 1029.18 270.416C1020.89 274.714 1012.29 278.015 1003.39 280.317C994.642 282.62 986.046 283.31 977.604 282.389C970.696 281.775 964.863 279.396 960.104 275.252C955.499 270.953 952.122 265.811 949.973 259.825C947.824 253.838 946.98 247.391 947.44 240.483C947.747 233.576 949.513 226.975 952.736 220.682ZM962.407 191.209C963.021 188.6 964.172 186.221 965.861 184.072C967.703 181.923 969.621 180.157 971.617 178.776C973.766 177.394 975.838 176.627 977.834 176.473C979.829 176.166 981.288 176.703 982.209 178.085C983.283 179.313 983.667 181.462 983.36 184.532C983.053 187.602 981.671 191.747 979.215 196.966C977.834 199.268 975.992 200.88 973.689 201.801C971.387 202.569 969.238 202.722 967.242 202.261C965.4 201.801 963.865 200.65 962.637 198.808C961.563 196.966 961.486 194.433 962.407 191.209ZM1048.31 259.364C1048.47 254.299 1049.46 249.003 1051.31 243.477C1053.15 237.797 1055.68 232.271 1058.9 226.899C1062.13 221.372 1065.89 216.307 1070.19 211.702C1074.48 207.097 1079.17 203.259 1084.23 200.189C1089.3 197.119 1094.67 195.124 1100.35 194.203C1106.03 193.282 1111.79 193.819 1117.62 195.814C1121.61 178.315 1125.83 161.814 1130.28 146.31C1134.89 130.653 1139.49 116.684 1144.1 104.404C1148.7 91.9706 1153.15 81.4557 1157.45 72.8596C1161.9 64.11 1166.13 57.8164 1170.12 53.9789C1173.65 49.8343 1177.48 46.7643 1181.63 44.7688C1185.77 42.7733 1189.61 42.1593 1193.14 42.9268C1196.67 43.5408 1199.44 45.7666 1201.43 49.6041C1203.58 53.4416 1204.35 59.1212 1203.73 66.6428C1203.12 73.3969 1201.51 80.9184 1198.9 89.2075C1196.44 97.4966 1193.29 106.169 1189.46 115.226C1185.62 124.129 1181.25 133.263 1176.33 142.626C1171.57 151.99 1166.59 161.277 1161.37 170.487C1156.3 179.543 1151.24 188.293 1146.17 196.735C1141.1 205.025 1136.35 212.7 1131.89 219.761C1128.06 229.738 1124.45 240.407 1121.07 251.766C1117.85 262.971 1115.01 274.484 1112.55 286.304C1110.25 297.97 1108.49 309.789 1107.26 321.763C1106.18 333.889 1105.95 345.786 1106.57 357.452C1107.18 369.732 1109.41 379.786 1113.24 387.615C1117.23 395.443 1123.22 401.43 1131.2 405.574C1133.97 407.109 1135.35 408.875 1135.35 410.87C1135.5 412.866 1134.66 414.478 1132.82 415.706C1131.13 417.087 1128.67 417.624 1125.45 417.317C1122.38 417.164 1119.08 415.552 1115.55 412.482C1110.48 407.723 1106.57 400.739 1103.8 391.529C1101.19 382.319 1099.51 371.497 1098.74 359.063C1097.66 342.485 1098.05 324.142 1099.89 304.033C1101.73 284.078 1104.42 263.585 1107.95 242.556C1105.03 247.314 1101.73 252.38 1098.05 257.752C1094.36 263.125 1090.37 267.96 1086.07 272.258C1081.93 276.403 1077.48 279.55 1072.72 281.699C1068.11 283.694 1063.36 283.694 1058.44 281.699C1054.61 280.164 1051.92 277.247 1050.38 272.949C1048.85 268.651 1048.16 264.123 1048.31 259.364ZM1115.32 205.485C1110.86 203.029 1106.49 203.029 1102.19 205.485C1097.89 207.788 1093.9 211.165 1090.22 215.616C1086.53 219.914 1083.39 224.673 1080.78 229.892C1078.17 235.111 1076.33 239.332 1075.25 242.556C1074.79 243.63 1074.33 245.165 1073.87 247.161C1073.41 249.003 1073.03 250.998 1072.72 253.147C1072.41 255.143 1072.34 257.138 1072.49 259.134C1072.64 260.976 1073.1 262.434 1073.87 263.509C1074.79 264.583 1076.71 263.739 1079.63 260.976C1082.7 258.059 1086.23 253.838 1090.22 248.312C1094.21 242.786 1098.43 236.339 1102.88 228.971C1107.49 221.449 1111.63 213.621 1115.32 205.485ZM1168.96 100.26C1162.52 112.693 1156.76 126.815 1151.7 142.626C1146.63 158.283 1142.18 174.094 1138.34 190.058C1142.03 183.458 1145.79 176.55 1149.62 169.335C1153.61 161.967 1157.45 154.599 1161.14 147.231C1164.97 139.71 1168.58 132.188 1171.96 124.666C1175.34 117.145 1178.41 109.93 1181.17 103.023C1185.01 93.1986 1187.39 85.9072 1188.31 81.1487C1189.23 76.3901 1189 74.0109 1187.62 74.0109C1186.23 73.8574 1183.85 76.0064 1180.48 80.4579C1177.25 84.9095 1173.42 91.5101 1168.96 100.26ZM1234.69 108.779C1227.32 120.599 1220.34 134.107 1213.73 149.303C1207.29 164.5 1201.38 179.85 1196.01 195.354C1200.3 189.214 1204.75 182.69 1209.36 175.782C1213.96 168.875 1218.42 161.891 1222.71 154.829C1227.17 147.615 1231.39 140.477 1235.38 133.416C1239.52 126.355 1243.28 119.447 1246.66 112.693C1251.42 103.33 1254.41 96.3454 1255.64 91.7403C1257.02 86.9817 1257.02 84.5257 1255.64 84.3722C1254.26 84.0652 1251.73 85.984 1248.04 90.1285C1244.36 94.2731 1239.91 100.49 1234.69 108.779ZM1214.43 244.628C1214.73 243.707 1214.96 242.863 1215.12 242.095C1215.42 241.174 1215.5 240.56 1215.35 240.253C1215.35 239.946 1214.96 239.946 1214.2 240.253C1213.43 240.56 1212.28 241.404 1210.74 242.786C1206.9 246.163 1203.07 250.691 1199.23 256.371C1195.54 262.05 1192.01 268.114 1188.64 274.561C1185.26 280.854 1182.19 287.148 1179.43 293.441C1176.82 299.582 1174.75 304.801 1173.21 309.099C1172.6 310.787 1171.98 312.476 1171.37 314.164C1170.91 316.006 1170.45 317.848 1169.99 319.69C1169.99 320.918 1169.53 321.916 1168.61 322.684C1167.53 323.605 1166.46 323.988 1165.38 323.835C1164.15 323.681 1163.08 322.76 1162.16 321.072C1161.08 319.537 1160.55 316.927 1160.55 313.243C1160.55 308.331 1160.85 301.731 1161.47 293.441C1162.08 285.152 1163.08 275.789 1164.46 265.351C1165.84 254.913 1167.68 243.707 1169.99 231.734C1172.14 219.607 1174.75 207.25 1177.82 194.663C1181.04 181.923 1184.65 169.259 1188.64 156.672C1192.78 144.084 1197.39 132.034 1202.45 120.522C1207.67 108.856 1213.35 98.1106 1219.49 88.2865C1225.78 78.4624 1232.69 69.9431 1240.21 62.7285C1244.05 59.0444 1248.12 56.4349 1252.42 54.8999C1256.87 53.2114 1260.78 52.9044 1264.16 53.9789C1267.54 54.8999 1270.07 57.3559 1271.76 61.347C1273.6 65.338 1273.83 71.0943 1272.45 78.6159C1271.22 85.2165 1268.84 92.7381 1265.31 101.181C1261.93 109.47 1257.79 118.143 1252.88 127.199C1247.97 136.102 1242.59 145.159 1236.76 154.369C1230.93 163.579 1225.02 172.482 1219.03 181.078C1213.04 189.674 1207.21 197.733 1201.53 205.255C1196.01 212.623 1191.09 218.993 1186.8 224.366C1184.65 231.427 1182.65 238.181 1180.81 244.628C1179.12 251.075 1177.59 256.985 1176.2 262.357C1174.98 267.576 1173.9 272.182 1172.98 276.173C1172.21 280.164 1171.6 283.31 1171.14 285.613C1173.59 281.161 1176.66 275.866 1180.35 269.725C1184.19 263.432 1188.41 257.215 1193.01 251.075C1197.62 244.781 1202.45 239.102 1207.52 234.036C1212.74 228.817 1217.88 225.057 1222.94 222.754C1225.09 221.679 1227.17 221.219 1229.16 221.372C1231.16 221.372 1232.85 221.833 1234.23 222.754C1235.61 223.521 1236.61 224.749 1237.22 226.438C1237.83 227.973 1237.83 229.738 1237.22 231.734C1232.15 247.544 1230.01 260.362 1230.77 270.186C1231.69 279.857 1235.38 285.459 1241.83 286.994C1245.51 287.915 1249.65 287.608 1254.26 286.073C1259.02 284.538 1263.93 282.313 1269 279.396C1274.21 276.326 1279.43 272.796 1284.65 268.804C1289.87 264.66 1294.86 260.439 1299.62 256.141C1304.38 251.689 1308.75 247.391 1312.74 243.246C1316.89 238.948 1320.34 235.111 1323.1 231.734C1324.64 229.585 1326.33 228.203 1328.17 227.589C1330.01 226.975 1331.47 226.975 1332.54 227.589C1333.77 228.203 1334.31 229.431 1334.16 231.273C1334 232.962 1332.78 235.034 1330.47 237.49C1325.41 243.477 1319.27 250.154 1312.05 257.522C1304.99 264.737 1297.32 271.414 1289.03 277.554C1280.74 283.541 1272.14 288.453 1263.24 292.29C1254.49 295.974 1245.89 297.356 1237.45 296.435C1231.16 295.821 1226.01 293.825 1222.02 290.448C1218.19 287.071 1215.35 282.927 1213.5 278.015C1211.82 273.103 1211.05 267.73 1211.2 261.897C1211.51 255.91 1212.58 250.154 1214.43 244.628ZM1380.91 230.813C1379.22 232.194 1376.99 234.65 1374.23 238.181C1371.62 241.711 1368.63 245.626 1365.25 249.924C1361.87 254.222 1358.19 258.597 1354.2 263.048C1350.21 267.346 1346.06 271.107 1341.76 274.331C1337.62 277.401 1333.32 279.55 1328.87 280.778C1324.57 282.006 1320.35 281.545 1316.21 279.396C1312.52 277.554 1310.14 274.407 1309.07 269.956C1307.84 265.504 1307.53 260.899 1308.15 256.141C1309.22 246.623 1312.21 237.797 1317.13 229.662C1322.19 221.526 1328.41 214.618 1335.78 208.939C1343.3 203.106 1351.66 198.808 1360.87 196.045C1370.09 193.282 1379.53 192.591 1389.2 193.972C1395.03 194.74 1400.48 196.582 1405.54 199.498C1410.61 202.262 1414.45 206.406 1417.06 211.932C1418.28 214.542 1418.51 216.614 1417.75 218.149C1416.98 219.684 1415.75 220.605 1414.06 220.912C1412.53 221.219 1410.76 220.835 1408.77 219.761C1406.93 218.533 1405.47 216.537 1404.39 213.774C1402.24 209.783 1399.56 206.79 1396.33 204.794C1393.11 202.645 1389.66 201.417 1385.97 201.11C1381.21 200.65 1376.38 201.571 1371.47 203.873C1366.55 206.022 1361.87 209.092 1357.42 213.083C1352.97 216.921 1348.9 221.372 1345.22 226.438C1341.53 231.504 1338.62 236.646 1336.47 241.865C1336.01 242.939 1335.39 244.398 1334.63 246.24C1334.01 248.082 1333.47 250.077 1333.01 252.226C1332.55 254.222 1332.25 256.217 1332.09 258.213C1332.09 260.055 1332.48 261.513 1333.24 262.588C1333.86 263.509 1335.32 263.202 1337.62 261.667C1340.08 260.132 1342.92 257.983 1346.14 255.22C1349.36 252.303 1352.74 249.003 1356.27 245.319C1359.95 241.635 1363.41 238.104 1366.63 234.727C1370.01 231.35 1372.92 228.357 1375.38 225.747C1377.84 223.138 1379.45 221.449 1380.22 220.682C1382.98 218.072 1385.74 216.384 1388.51 215.616C1391.27 214.695 1393.65 214.542 1395.64 215.156C1397.79 215.77 1399.33 216.998 1400.25 218.84C1401.32 220.682 1401.48 222.831 1400.71 225.287C1398.1 233.115 1396.49 239.869 1395.87 245.549C1395.26 251.229 1395.41 255.987 1396.33 259.825C1397.25 263.509 1398.87 266.425 1401.17 268.574C1403.47 270.723 1406.23 272.182 1409.46 272.949C1414.98 274.177 1421.51 273.717 1429.03 271.568C1436.7 269.265 1444.38 265.965 1452.05 261.667C1459.88 257.369 1467.25 252.533 1474.16 247.161C1481.07 241.788 1486.59 236.646 1490.74 231.734C1492.27 229.585 1493.96 228.203 1495.8 227.589C1497.64 226.975 1499.1 226.975 1500.18 227.589C1501.41 228.203 1501.94 229.431 1501.79 231.273C1501.64 232.962 1500.41 235.034 1498.11 237.49C1493.04 243.477 1486.9 249.387 1479.69 255.22C1472.62 261.053 1464.95 266.118 1456.66 270.416C1448.37 274.714 1439.77 278.015 1430.87 280.317C1422.12 282.62 1413.53 283.31 1405.08 282.389C1398.18 281.775 1392.42 279.933 1387.81 276.863C1383.21 273.64 1379.83 269.725 1377.68 265.12C1375.69 260.362 1374.92 255.066 1375.38 249.233C1375.84 243.246 1377.68 237.106 1380.91 230.813ZM1540.43 240.023C1540.12 239.409 1538.97 240.407 1536.97 243.016C1535.13 245.472 1532.75 248.773 1529.84 252.917C1527.07 257.062 1524 261.82 1520.63 267.193C1517.4 272.412 1514.26 277.554 1511.19 282.62C1508.27 287.532 1505.51 292.137 1502.9 296.435C1500.44 300.579 1498.68 303.649 1497.6 305.645C1495.91 307.794 1494.15 309.559 1492.31 310.941C1490.62 312.322 1488.78 313.013 1486.78 313.013C1484.17 313.013 1482.1 312.245 1480.56 310.71C1479.03 309.329 1477.8 307.564 1476.88 305.415C1475.8 303.266 1475.04 300.963 1474.58 298.507C1474.12 296.051 1473.81 293.748 1473.66 291.599C1473.04 285.613 1473.27 278.475 1474.35 270.186C1475.42 261.897 1477.11 253.608 1479.41 245.319C1481.56 237.03 1484.17 229.278 1487.24 222.063C1490.31 214.695 1493.46 209.092 1496.68 205.255C1499.14 202.338 1501.67 200.496 1504.28 199.729C1507.04 198.808 1509.5 198.731 1511.65 199.498C1513.95 200.112 1515.64 201.417 1516.71 203.413C1517.79 205.255 1517.94 207.404 1517.17 209.86C1515.79 214.465 1513.49 220.605 1510.27 228.28C1507.04 235.802 1503.74 243.707 1500.36 251.996C1497.14 260.285 1494.22 268.344 1491.62 276.173C1489.01 284.001 1487.55 290.525 1487.24 295.744C1487.24 296.051 1487.24 296.588 1487.24 297.356C1487.24 297.97 1487.32 298.507 1487.47 298.968C1487.62 299.428 1487.85 299.735 1488.16 299.889C1488.62 299.889 1489.24 299.428 1490 298.507C1490.46 297.893 1491.54 296.051 1493.23 292.981C1495.07 289.757 1497.29 285.843 1499.9 281.238C1502.67 276.48 1505.74 271.337 1509.11 265.811C1512.49 260.132 1516.02 254.606 1519.71 249.233C1523.54 243.86 1527.38 238.948 1531.22 234.497C1535.21 229.892 1539.05 226.208 1542.73 223.445C1546.26 220.835 1549.56 219.454 1552.63 219.3C1555.86 218.993 1558.62 220.451 1560.92 223.675C1562.61 226.131 1563.3 229.278 1562.99 233.115C1562.69 236.799 1561.92 240.79 1560.69 245.088C1559.62 249.387 1558.47 253.838 1557.24 258.443C1556.01 262.895 1555.32 267.116 1555.16 271.107C1555.16 274.945 1555.93 278.322 1557.47 281.238C1559.16 284.001 1562.38 285.92 1567.14 286.994C1570.82 287.915 1574.97 287.608 1579.57 286.073C1584.33 284.538 1589.24 282.313 1594.31 279.396C1599.53 276.326 1604.75 272.796 1609.96 268.804C1615.18 264.66 1620.17 260.439 1624.93 256.141C1629.69 251.689 1634.06 247.391 1638.06 243.246C1642.2 238.948 1645.65 235.111 1648.42 231.734C1649.95 229.585 1651.64 228.203 1653.48 227.589C1655.32 226.975 1656.78 226.975 1657.86 227.589C1659.09 228.203 1659.62 229.431 1659.47 231.273C1659.32 232.962 1658.09 235.034 1655.79 237.49C1650.72 243.477 1644.58 250.154 1637.37 257.522C1630.3 264.737 1622.63 271.414 1614.34 277.554C1606.05 283.541 1597.45 288.453 1588.55 292.29C1579.8 295.974 1571.21 297.356 1562.76 296.435C1556.47 295.821 1551.33 293.825 1547.34 290.448C1543.5 287.071 1540.66 282.927 1538.82 278.015C1537.13 273.103 1536.36 267.73 1536.51 261.897C1536.82 255.91 1537.9 250.154 1539.74 244.628C1540.04 243.707 1540.28 242.786 1540.43 241.865C1540.74 240.944 1540.74 240.33 1540.43 240.023Z" fill="#ffffff"/>
<path d="M1806.55 106.31C1805.08 104.651 1803.32 103.539 1801.57 102.107L1799.42 105.462C1796.26 102.729 1792.99 100.373 1790.07 97.4134C1787.06 94.3411 1784.61 90.8731 1781.82 87.5181L1733.68 134.752C1736.19 137.881 1738.56 141.066 1741.39 143.931C1744.48 147.079 1747.89 149.774 1751.25 152.677L1799.33 105.499L1802.29 108.289L1777.88 133.301C1776.16 133.564 1774.67 134.186 1773.43 135.43L1765.53 143.46C1764.29 144.723 1762.76 147.889 1764.31 149.095C1766.08 150.471 1769.11 148.228 1770.58 146.721L1805.94 110.494C1806.96 109.457 1807.49 107.403 1806.55 106.348V106.31ZM1764.16 114.132L1743.5 134.79C1742.8 135.487 1741.92 135.317 1741.39 134.846C1740.88 134.375 1740.67 133.376 1741.31 132.735L1761.82 112.228C1762.44 111.606 1763.23 111.531 1763.89 111.964C1764.48 112.341 1764.82 113.491 1764.16 114.151V114.132Z" fill="#ffffff"/>
<path d="M1736.94 150.773L1729.99 142.781L1679.51 192.635L1680.23 193.879L1669.14 203.567L1660.59 219.494C1660.45 219.758 1660.59 220.493 1660.76 220.7C1660.94 220.907 1661.53 221.096 1661.89 221.02L1681.94 216.516L1691.8 205.866L1694.14 207.695L1744.65 157.803C1742.05 155.391 1739.24 153.374 1736.96 150.754L1736.94 150.773ZM1680.77 214.537L1666.35 217.703L1675.85 209.127C1677.34 209.485 1678.66 208.675 1678.91 207.355C1679.15 205.942 1678.1 204.66 1676.66 204.66C1675.23 204.66 1674.19 205.923 1674.4 207.506L1665.37 215.441L1670.92 204.962L1681.62 195.613C1683.02 197.309 1684.22 198.987 1685.71 200.532C1687.09 201.965 1688.58 203.133 1690.12 204.509L1680.79 214.574L1680.77 214.537ZM1709.52 172.731L1688.39 193.992C1687.69 194.689 1686.82 194.539 1686.31 194.086C1685.75 193.577 1685.52 192.597 1686.18 191.938L1707.29 170.696C1707.9 170.092 1708.84 170.206 1709.33 170.601C1709.86 171.054 1710.1 172.109 1709.52 172.712V172.731Z" fill="#ffffff"/>
<path d="M1799.95 84.9543C1795.11 81.4297 1789.53 82.3533 1784.85 85.9344C1788.28 90.3072 1791.71 94.3596 1795.77 98.035C1797.54 99.656 1799.31 101.07 1801.57 101.993C1804.66 96.1502 1805.6 89.0444 1799.95 84.9543ZM1789.77 86.9899C1789.47 86.858 1789.08 86.3114 1789.04 86.0287C1788.85 84.6905 1792.03 83.5973 1794.45 84.992C1794.65 85.124 1794.96 85.5952 1795.01 85.8402C1795.22 87.0088 1792.41 88.2151 1789.79 86.9899H1789.77Z" fill="#ffffff"/>
<path d="M1750.17 154.466L1747.93 156.747C1744.52 153.694 1741.16 150.847 1737.92 147.606C1735.17 144.854 1732.94 141.876 1730.34 138.86L1732.61 136.598C1735.47 139.972 1738 143.421 1741.09 146.625C1743.9 149.528 1746.99 151.771 1750.15 154.485L1750.17 154.466Z" fill="#ffffff"/>
<path d="M1794.99 85.8396C1795.2 87.0082 1792.39 88.2144 1789.77 86.9893C1789.47 86.8574 1789.07 86.3108 1789.04 86.028C1788.85 84.6898 1792.03 83.5966 1794.45 84.9914C1794.65 85.1233 1794.96 85.5945 1795.01 85.8396H1794.99Z" fill="white"/>
<defs>
<linearGradient id="paint0_linear_98_305" x1="102.556" y1="164.172" x2="102.358" y2="364.603" gradientUnits="userSpaceOnUse">
<stop stop-color="#ffffff"/>
<stop offset="1" stop-color="#0040B0"/>
</linearGradient>
<linearGradient id="paint1_linear_98_305" x1="131.181" y1="174.582" x2="144.178" y2="292.659" gradientUnits="userSpaceOnUse">
<stop stop-color="#0189BB"/>
<stop offset="1" stop-color="#003E55"/>
</linearGradient>
<linearGradient id="paint2_linear_98_305" x1="135.507" y1="78" x2="260.867" y2="436.545" gradientUnits="userSpaceOnUse">
<stop stop-color="#0189BB"/>
<stop offset="1" stop-color="#00435B"/>
</linearGradient>
<linearGradient id="paint3_linear_98_305" x1="129.556" y1="148.188" x2="176.056" y2="291.489" gradientUnits="userSpaceOnUse">
<stop stop-color="#ffffff"/>
<stop offset="1" stop-color="#0040B0"/>
</linearGradient>
</defs>
</svg>
